<?xml version="1.0" standalone="no"?>
<!DOCTYPE svg PUBLIC "-//W3C//DTD SVG 20010904//EN"
 "http://www.w3.org/TR/2001/REC-SVG-20010904/DTD/svg10.dtd">
<svg version="1.0" xmlns="http://www.w3.org/2000/svg"
 width="864.000000pt" height="864.000000pt" viewBox="0 0 864.000000 864.000000"
 preserveAspectRatio="xMidYMid meet">
<metadata>
Created by potrace 1.14, written by Peter Selinger 2001-2017
</metadata>
<g transform="translate(0.000000,864.000000) scale(0.100000,-0.100000)"
fill="#000000" stroke="none">
<path d="M3328 8635 c-1 -2 -39 -6 -83 -9 -73 -6 -115 -10 -139 -14 -7 -2 -2
-79 10 -137 2 -11 7 -35 10 -54 3 -18 8 -43 10 -55 2 -11 7 -48 10 -81 3 -33
8 -64 11 -68 2 -4 6 -22 8 -40 3 -18 7 -48 10 -67 3 -19 8 -53 11 -75 3 -22 8
-43 10 -47 2 -3 -419 -430 -937 -948 l-940 -942 5 -37 c3 -20 8 -65 12 -101 3
-36 7 -72 9 -80 2 -9 6 -47 10 -85 11 -115 14 -138 19 -175 4 -32 9 -75 22
-189 4 -37 30 -95 37 -81 1 3 20 -6 42 -19 22 -13 65 -38 95 -54 30 -16 57
-33 60 -37 3 -3 19 -13 35 -22 17 -8 96 -53 178 -101 81 -48 151 -87 156 -87
5 0 11 -4 13 -8 2 -4 24 -20 49 -35 l47 -27 16 25 c9 14 14 25 11 25 -3 0 6
18 20 40 14 22 25 44 25 50 0 5 4 10 9 10 5 0 14 13 20 28 12 28 148 166 229
232 24 19 53 44 66 55 12 11 35 29 50 40 16 11 50 36 76 55 70 51 76 55 176
120 183 118 694 394 694 374 0 -4 7 0 16 7 9 7 21 14 28 15 6 2 49 19 96 39
47 20 94 40 105 45 34 15 144 50 156 50 10 0 -58 -92 -73 -98 -5 -2 -8 -8 -8
-14 0 -5 -6 -15 -12 -23 -41 -42 -216 -298 -239 -347 -7 -16 -16 -28 -21 -28
-4 0 -8 -5 -8 -10 0 -6 -11 -27 -23 -48 -39 -61 -84 -146 -152 -280 -79 -160
-97 -198 -150 -332 -14 -36 -30 -74 -34 -85 -15 -33 -35 -89 -37 -100 -2 -5
-14 -44 -29 -84 -28 -78 -93 -298 -101 -341 -3 -14 -9 -38 -14 -55 -12 -42
-49 -214 -54 -250 -2 -16 -6 -41 -9 -55 -7 -27 -12 -58 -27 -170 -6 -41 -13
-93 -17 -115 -12 -89 -14 -106 -29 -345 -14 -224 -5 -575 20 -771 6 -44 4 -48
-30 -74 -80 -61 -84 -194 -9 -265 26 -25 28 -25 228 -26 111 -1 204 -3 207 -4
5 -1 -38 -21 -56 -25 -22 -5 -259 -127 -265 -137 -3 -5 -9 -9 -13 -8 -9 2
-160 -92 -164 -102 -2 -4 -8 -8 -14 -8 -13 0 -159 -112 -253 -194 -142 -124
-251 -243 -368 -400 -37 -50 -71 -95 -75 -101 -41 -53 -182 -311 -182 -331 0
-7 -4 -14 -8 -16 -22 -9 -136 -344 -159 -470 -4 -20 -11 -28 -27 -29 -202 -7
-199 -6 -246 -27 -49 -22 -106 -87 -116 -134 -24 -110 35 -215 143 -254 31
-11 526 -13 2843 -14 1797 0 2817 4 2839 10 90 25 164 119 160 202 -2 48 -26
118 -40 118 -5 0 -9 5 -9 10 0 27 -85 77 -145 85 -17 2 -66 4 -111 4 l-81 1
-22 87 c-29 112 -89 291 -107 320 -8 12 -14 27 -14 33 0 11 -82 179 -117 241
-12 20 -27 47 -35 60 -12 21 -65 100 -122 184 -55 79 -180 221 -286 325 -147
144 -276 246 -445 352 -22 13 -58 36 -80 50 -49 30 -288 148 -301 148 -6 0
-18 6 -27 13 -14 10 20 12 180 11 109 0 208 4 220 9 66 29 96 153 55 232 -28
55 -54 68 -137 70 -38 1 -68 6 -66 11 2 5 7 18 11 30 8 19 80 74 99 74 5 0 11
3 13 8 2 4 26 25 53 47 308 244 558 621 711 1074 20 57 37 111 39 120 2 9 14
50 25 91 12 41 24 86 26 100 3 13 12 56 20 95 9 38 17 83 19 98 7 46 15 102
19 122 2 11 7 47 11 80 4 32 8 67 10 76 13 66 20 273 19 569 -1 317 -3 392
-19 550 -3 30 -7 75 -10 100 -2 25 -7 63 -9 85 -3 22 -8 63 -12 90 -14 113
-28 206 -58 365 -20 112 -69 298 -85 329 -7 11 -9 21 -7 21 5 0 -45 152 -64
195 -4 11 -31 72 -59 135 -57 133 -106 227 -168 323 -23 37 -43 70 -43 73 0 8
-164 224 -201 264 -78 86 -100 109 -170 175 -74 70 -118 107 -194 164 -22 17
-47 37 -56 46 -9 8 -20 15 -26 15 -5 0 -18 9 -28 20 -10 11 -22 20 -26 20 -5
0 -39 20 -76 44 -184 119 -510 260 -743 323 -30 8 -62 16 -70 19 -59 15 -171
40 -220 49 -19 3 -55 10 -80 15 -42 8 -113 19 -170 26 -14 1 -50 6 -80 10 -30
3 -75 8 -100 11 -59 5 -597 12 -602 8z"/>
</g>
</svg>
